<?xml version="1.0" standalone="no"?>
<!DOCTYPE svg PUBLIC "-//W3C//DTD SVG 20010904//EN"
 "http://www.w3.org/TR/2001/REC-SVG-20010904/DTD/svg10.dtd">
<svg version="1.0" xmlns="http://www.w3.org/2000/svg"
 width="500.000000pt" height="500.000000pt" viewBox="0 0 500.000000 500.000000"
 preserveAspectRatio="xMidYMid meet">
<metadata>
Created by potrace 1.14, written by Peter Selinger 2001-2017
</metadata>
<g transform="translate(0.000000,500.000000) scale(0.100000,-0.100000)"
fill="#000000" stroke="none">
<path d="M890 4295 c0 -80 2 -145 5 -145 10 0 280 -41 303 -46 l23 -5 -3 -777
-3 -777 -31 -65 c-36 -74 -88 -131 -149 -160 -132 -64 -313 -43 -418 49 -62
55 -116 191 -117 296 0 22 -4 46 -8 53 -7 9 -59 12 -228 10 l-219 -3 3 -55
c12 -219 83 -391 217 -526 86 -87 162 -135 280 -177 239 -85 567 -73 769 28
38 19 70 34 70 32 12 -37 85 -168 120 -214 132 -175 313 -287 541 -334 175
-36 489 -22 656 31 35 11 67 20 72 20 6 0 11 -549 5 -550 -2 -1 -43 -9 -93
-18 l-90 -17 -3 -103 -3 -102 366 0 366 0 -3 102 -3 102 -70 13 c-38 6 -85 15
-102 18 l-33 6 0 189 c0 105 -5 359 -11 566 -6 207 -9 377 -7 379 2 2 126
-300 277 -671 l274 -674 126 0 126 0 265 670 265 671 3 -562 c1 -309 0 -564
-2 -566 -2 -2 -46 -12 -97 -21 l-94 -17 -3 -103 -3 -102 361 0 360 0 0 104 0
104 -47 7 c-27 4 -69 11 -95 17 l-48 10 0 647 0 648 73 12 c130 23 117 9 117
127 l0 104 -342 -2 -343 -3 -240 -622 c-132 -343 -242 -623 -245 -623 -3 0
-117 281 -254 625 l-249 625 -471 -2 -471 -3 0 -140 0 -140 155 -10 155 -10 3
-190 2 -191 -47 -17 c-132 -47 -345 -62 -472 -32 -228 54 -382 255 -422 551
-15 112 -6 375 16 464 69 286 237 459 475 489 133 17 330 -18 411 -72 32 -21
34 -27 59 -162 l25 -140 153 -3 152 -3 -2 233 -3 232 -78 52 c-336 225 -883
243 -1179 40 l-38 -25 0 329 c0 304 1 329 18 334 9 3 66 14 126 26 59 11 112
23 117 26 5 3 9 68 9 145 l0 139 -540 0 -540 0 0 -145z"/>
</g>
</svg>
